<!DOCTYPE svg PUBLIC "-//W3C//DTD SVG 1.1//EN" "http://www.w3.org/Graphics/SVG/1.1/DTD/svg11.dtd">

<svg width="16px" height="18px" viewBox="0 0 48 52" fill="none" xmlns="http://www.w3.org/2000/svg">
<rect width="48" height="52" fill="white" fill-opacity="0.01"/>
<path
  d="M9.85786 35.5C6.23858 36.6 4 38.1 4 39.8C4 43.1 12.9543 45.8 24 45.8C35.0457 45.8 44 43.1 44 39.8C44 38.1 41.7614 36.6 38.1421 35.5"
  stroke="#000000" stroke-width="2.4" stroke-linecap="round" stroke-linejoin="round"
/>
<path
  d="M24 38C24 38 36 27 36 16C36 8.5 30.5 3 24 3C17.5 3 12 8.5 12 16C12 27 24 38 24 38Z"
  fill="#FF4D4F" stroke="#000000" stroke-width="2.4" stroke-linejoin="round"
/>
<path
  d="M24 21.5C26.8 21.5 29 19.3 29 16.5C29 13.7 26.8 11.5 24 11.5C21.2 11.5 19 13.7 19 16.5C19 19.3 21.2 21.5 24 21.5Z"
  fill="#D9363E" stroke="white" stroke-width="2.4" stroke-linejoin="round"
/>
</svg>
